<?xml version="1.0" encoding="UTF-8" standalone="no"?>
<!-- Created with Inkscape (http://www.inkscape.org/) -->

<svg
   xmlns:dc="http://purl.org/dc/elements/1.1/"
   xmlns:cc="http://creativecommons.org/ns#"
   xmlns:rdf="http://www.w3.org/1999/02/22-rdf-syntax-ns#"
   xmlns:svg="http://www.w3.org/2000/svg"
   xmlns="http://www.w3.org/2000/svg"
   xmlns:sodipodi="http://sodipodi.sourceforge.net/DTD/sodipodi-0.dtd"
   xmlns:inkscape="http://www.inkscape.org/namespaces/inkscape"
   width="200mm"
   height="200mm"
   viewBox="0 0 200 200"
   version="1.1"
   id="svg8"
   inkscape:version="0.92.2 5c3e80d, 2017-08-06"
   sodipodi:docname="logo.svg">
  <defs
     id="defs2" />
  <sodipodi:namedview
     id="base"
     pagecolor="#ffffff"
     bordercolor="#666666"
     borderopacity="1.0"
     inkscape:pageopacity="0.0"
     inkscape:pageshadow="2"
     inkscape:zoom="1"
     inkscape:cx="415.08523"
     inkscape:cy="319.10748"
     inkscape:document-units="mm"
     inkscape:current-layer="g999"
     showgrid="false"
     inkscape:window-width="1680"
     inkscape:window-height="917"
     inkscape:window-x="0"
     inkscape:window-y="1"
     inkscape:window-maximized="1" />
  <metadata
     id="metadata5">
    <rdf:RDF>
      <cc:Work
         rdf:about="">
        <dc:format>image/svg+xml</dc:format>
        <dc:type
           rdf:resource="http://purl.org/dc/dcmitype/StillImage" />
        <dc:title />
      </cc:Work>
    </rdf:RDF>
  </metadata>
  <g
     inkscape:label="Capa 1"
     inkscape:groupmode="layer"
     id="layer1"
     transform="translate(0,-97)">
    <path
       style="fill:#4d4d4d;stroke:#000000;stroke-width:2.01318789;stroke-miterlimit:4;stroke-dasharray:none;stroke-opacity:1"
       d="m 175.58723,274.80309 c -7.3965,-7.41254 -17.37998,-17.83657 -32.97921,-16.33846 -13.88192,1.33317 -27.54854,29.93168 -41.7685,28.80479 -11.929445,-0.94538 -19.509785,-28.24787 -33.228688,-28.40578 -13.010683,-0.14975 -24.39188,28.52027 -39.445139,28.3355 -3.850657,-0.0472 -2.654141,-5.95646 -2.654141,-5.95646 0,0 0.598574,-93.23942 0.417582,-116.75833 -0.264583,-34.38107 33.733368,-58.52634 75.019196,-58.52634 41.28584,0 74.92592,23.07421 74.49004,58.25826 0.42433,36.91246 0.0761,73.67179 0.14886,110.58682 z"
       id="path817"
       inkscape:connector-curvature="0"
       sodipodi:nodetypes="csssscsscc" />
    <path
       style="fill:none;fill-opacity:1;stroke:#000000;stroke-width:2;stroke-linecap:butt;stroke-linejoin:miter;stroke-miterlimit:4;stroke-dasharray:none;stroke-opacity:1"
       d="m 25.643874,261.5563 4.656878,-0.75593 c 15.942109,-2.58782 23.035811,25.30989 37.501896,25.75212 15.508689,0.47411 27.473816,-26.92034 42.987402,-27.19051 16.4048,-0.28569 24.86723,27.23225 41.60833,27.11081 12.12713,-0.088 23.54349,-9.98318 23.54349,-9.98318"
       id="path824"
       inkscape:connector-curvature="0"
       sodipodi:nodetypes="cssssc" />
    <path
       style="opacity:1;fill:#ffffff;fill-opacity:1;stroke:#000000;stroke-width:2;stroke-miterlimit:4;stroke-dasharray:none;stroke-opacity:1"
       d="m 65.990878,286.03983 c -1.760317,-0.35394 -3.965426,-1.39334 -5.873318,-2.76841 -2.133865,-1.53793 -6.39636,-6.09382 -10.083618,-10.7777 l -0.5027,-0.63858 2.781805,-2.9223 c 4.633158,-4.86715 7.423641,-7.1845 10.33594,-8.58338 1.836306,-0.88207 3.009276,-1.15833 4.882902,-1.15004 3.267456,0.0144 5.93392,1.2394 9.414407,4.32503 2.127307,1.88595 4.243791,4.33626 7.742172,8.96328 l 2.020041,2.67174 -1.162939,1.14131 c -6.077815,5.96475 -10.880314,9.0335 -15.250159,9.74473 -1.033518,0.16822 -3.455563,0.16501 -4.304533,-0.005 z"
       id="path978"
       inkscape:connector-curvature="0" />
    <path
       style="opacity:1;fill:#ffffff;fill-opacity:1;stroke:#000000;stroke-width:2;stroke-miterlimit:4;stroke-dasharray:none;stroke-opacity:1"
       d="m 26.981036,287.0118 c -1.073018,-0.50703 -1.647291,-1.63973 -1.660578,-3.27536 -0.0083,-1.0199 0.303942,-21.93909 0.327969,-21.97383 0.0083,-0.0121 1.176025,-0.52839 2.594854,-0.76844 3.178323,-0.53775 5.388813,-0.27142 7.034667,0.17089 3.155791,0.84809 5.817256,2.56174 9.178954,5.9101 1.790872,1.78377 5.121185,5.58561 5.056238,5.77214 -0.02037,0.0585 -1.138375,1.27232 -2.484443,2.69732 -6.273861,6.64177 -10.914221,10.07156 -15.213541,11.24465 -1.747944,0.47694 -4.069541,0.58381 -4.83412,0.22253 z"
       id="path992"
       inkscape:connector-curvature="0"
       sodipodi:nodetypes="scccsscsss" />
    <path
       style="opacity:1;fill:#ffffff;fill-opacity:1;stroke:#000000;stroke-width:2;stroke-miterlimit:4;stroke-dasharray:none;stroke-opacity:1"
       d="m 99.823683,287.57803 c -3.697795,-0.88119 -6.796781,-3.41387 -11.625478,-9.50103 -0.777953,-0.9807 -1.414334,-1.83848 -1.414175,-1.90617 4.31e-4,-0.19646 7.420895,-7.46891 9.337982,-9.15175 3.324624,-2.91839 5.668038,-4.57604 8.185888,-5.79038 2.73214,-1.3177 4.45218,-1.74188 7.0368,-1.73538 4.92072,0.0123 9.00035,2.11446 14.76628,7.60843 0.94096,0.8966 1.69299,1.66866 1.67114,1.71565 -0.12858,0.27664 -11.18588,11.07349 -12.46436,12.17078 -4.30888,3.6982 -7.43046,5.57408 -10.66915,6.41144 -1.37903,0.35654 -3.71499,0.44292 -4.824927,0.17841 z"
       id="path994"
       inkscape:connector-curvature="0" />
    <path
       style="fill:none;stroke:#000000;stroke-width:2;stroke-linecap:butt;stroke-linejoin:miter;stroke-miterlimit:4;stroke-dasharray:none;stroke-opacity:1"
       d="m 92.440272,270.03682 2.12474,14.88419"
       id="path1024"
       inkscape:connector-curvature="0" />
    <path
       inkscape:connector-curvature="0"
       id="path1026"
       d="m 99.938683,264.24253 2.566327,23.29723"
       style="fill:none;stroke:#000000;stroke-width:2;stroke-linecap:butt;stroke-linejoin:miter;stroke-miterlimit:4;stroke-dasharray:none;stroke-opacity:1"
       inkscape:transform-center-x="0.61260062" />
    <path
       style="fill:none;stroke:#000000;stroke-width:2;stroke-linecap:butt;stroke-linejoin:miter;stroke-miterlimit:4;stroke-dasharray:none;stroke-opacity:1"
       d="m 107.1121,260.28759 2.7331,24.81115"
       id="path1028"
       inkscape:connector-curvature="0" />
    <path
       inkscape:connector-curvature="0"
       id="path1030"
       d="m 115.04666,259.92279 2.10952,19.15028"
       style="fill:none;stroke:#000000;stroke-width:2;stroke-linecap:butt;stroke-linejoin:miter;stroke-miterlimit:4;stroke-dasharray:none;stroke-opacity:1" />
    <path
       inkscape:connector-curvature="0"
       id="path1032"
       d="m 122,263.58348 1.4152,9.37784"
       style="fill:none;stroke:#000000;stroke-width:2;stroke-linecap:butt;stroke-linejoin:miter;stroke-miterlimit:4;stroke-dasharray:none;stroke-opacity:1" />
    <path
       inkscape:connector-curvature="0"
       id="path1034"
       d="m 55.029917,265.61218 2.12474,14.88419"
       style="fill:none;stroke:#000000;stroke-width:2;stroke-linecap:butt;stroke-linejoin:miter;stroke-miterlimit:4;stroke-dasharray:none;stroke-opacity:1" />
    <path
       style="fill:none;stroke:#000000;stroke-width:2;stroke-linecap:butt;stroke-linejoin:miter;stroke-miterlimit:4;stroke-dasharray:none;stroke-opacity:1"
       d="m 62.098497,260.76571 3.409324,24.64287"
       id="path1036"
       inkscape:connector-curvature="0" />
    <path
       inkscape:connector-curvature="0"
       id="path1038"
       d="m 70.224773,259.49787 3.531665,25.52716"
       style="fill:none;stroke:#000000;stroke-width:2;stroke-linecap:butt;stroke-linejoin:miter;stroke-miterlimit:4;stroke-dasharray:none;stroke-opacity:1" />
    <path
       style="fill:none;stroke:#000000;stroke-width:2;stroke-linecap:butt;stroke-linejoin:miter;stroke-miterlimit:4;stroke-dasharray:none;stroke-opacity:1"
       d="m 78.41899,264.98723 2.110489,15.25479"
       id="path1040"
       inkscape:connector-curvature="0" />
    <path
       style="fill:none;stroke:#000000;stroke-width:2;stroke-linecap:butt;stroke-linejoin:miter;stroke-miterlimit:4;stroke-dasharray:none;stroke-opacity:1"
       d="m 26.601561,261.7509 2.496143,25.2609"
       id="path1042"
       inkscape:connector-curvature="0" />
    <path
       inkscape:connector-curvature="0"
       id="path1044"
       d="m 33.85866,260.2165 3.337547,23.38012"
       style="fill:none;stroke:#000000;stroke-width:2;stroke-linecap:butt;stroke-linejoin:miter;stroke-miterlimit:4;stroke-dasharray:none;stroke-opacity:1" />
    <path
       style="fill:none;stroke:#000000;stroke-width:2;stroke-linecap:butt;stroke-linejoin:miter;stroke-miterlimit:4;stroke-dasharray:none;stroke-opacity:1"
       d="m 41.907833,264.61948 2.01608,14.123"
       id="path1046"
       inkscape:connector-curvature="0" />
    <ellipse
       style="opacity:1;fill:#ffffff;fill-opacity:1;stroke:#000000;stroke-width:2.06381774;stroke-miterlimit:4;stroke-dasharray:none;stroke-opacity:1"
       id="path1048"
       cx="74.62851"
       cy="173.1749"
       rx="16.329433"
       ry="31.130087" />
    <ellipse
       style="opacity:1;fill:#000000;fill-opacity:1;stroke:#000000;stroke-width:1.38095236;stroke-miterlimit:4;stroke-dasharray:none;stroke-opacity:1"
       id="path1054"
       cx="81.359367"
       cy="169.69753"
       rx="3.8364584"
       ry="6.5767856" />
    <ellipse
       ry="31.108034"
       rx="16.677099"
       cy="171.33434"
       cx="122.87632"
       id="ellipse1056"
       style="opacity:1;fill:#ffffff;fill-opacity:1;stroke:#000000;stroke-width:2.08493328;stroke-miterlimit:4;stroke-dasharray:none;stroke-opacity:1" />
    <ellipse
       ry="6.5767856"
       rx="3.8364584"
       cy="167.84546"
       cx="129.24895"
       id="ellipse1058"
       style="opacity:1;fill:#000000;fill-opacity:1;stroke:#000000;stroke-width:1.38095236;stroke-miterlimit:4;stroke-dasharray:none;stroke-opacity:1" />
    <flowRoot
       xml:space="preserve"
       id="flowRoot1102"
       style="font-style:normal;font-variant:normal;font-weight:normal;font-stretch:normal;font-size:91.81157684px;line-height:1.25;font-family:Mshtakan;-inkscape-font-specification:'Mshtakan, Normal';font-variant-ligatures:normal;font-variant-caps:normal;font-variant-numeric:normal;font-feature-settings:normal;text-align:start;letter-spacing:0px;word-spacing:0px;writing-mode:lr-tb;text-anchor:start;fill:#ffffff;fill-opacity:1;stroke:none"
       transform="matrix(0.27665356,0,0,0.27665356,31.465624,-25.674245)"
       inkscape:transform-center-x="-18.520833"
       inkscape:transform-center-y="1.5875"><flowRegion
         id="flowRegion1104"
         style="font-style:normal;font-variant:normal;font-weight:normal;font-stretch:normal;font-size:91.81157684px;font-family:Mshtakan;-inkscape-font-specification:'Mshtakan, Normal';font-variant-ligatures:normal;font-variant-caps:normal;font-variant-numeric:normal;font-feature-settings:normal;text-align:start;writing-mode:lr-tb;text-anchor:start;fill:#ffffff;fill-opacity:1"><rect
           id="rect1106"
           width="310"
           height="134"
           x="90"
           y="862.51971"
           style="font-style:normal;font-variant:normal;font-weight:normal;font-stretch:normal;font-size:91.81157684px;font-family:Mshtakan;-inkscape-font-specification:'Mshtakan, Normal';font-variant-ligatures:normal;font-variant-caps:normal;font-variant-numeric:normal;font-feature-settings:normal;text-align:start;writing-mode:lr-tb;text-anchor:start;fill:#ffffff;fill-opacity:1" /></flowRegion><flowPara
         id="flowPara1108">CASPR</flowPara></flowRoot>    <path
       style="opacity:1;fill:#ffffff;fill-opacity:1;stroke:#000000;stroke-width:0.66875035;stroke-miterlimit:4;stroke-dasharray:none;stroke-opacity:1"
       d="m 150.45416,285.45685 c -1.84828,-0.21112 -3.50172,-0.71587 -5.36173,-1.63678 -2.83093,-1.40162 -5.28527,-3.28523 -8.69353,-6.67197 -1.31129,-1.30301 -7.31769,-7.66982 -8.11376,-8.60064 l -0.26047,-0.30453 0.34914,-0.35961 c 0.52723,-0.54306 2.72159,-2.52528 3.67412,-3.31896 2.60817,-2.17315 5.26239,-3.82095 7.35932,-4.5688 1.63555,-0.58331 2.97769,-0.76048 5.76786,-0.76139 6.05773,-0.002 11.42297,1.68662 17.06375,5.37044 3.22571,2.10661 5.89098,4.35249 10.10798,8.51743 l 2.74867,2.71472 -0.22167,0.18073 c -0.79761,0.65029 -2.55394,1.91878 -3.72399,2.68961 -6.47791,4.26762 -12.96208,6.63822 -18.57563,6.79121 -0.78027,0.0213 -1.73429,0.003 -2.12006,-0.0414 z"
       id="path856"
       inkscape:connector-curvature="0" />
  </g>
  <g
     transform="translate(0,-97)"
     id="g999"
     inkscape:groupmode="layer"
     inkscape:label="copia Capa 1">
    <path
       inkscape:connector-curvature="0"
       id="path997"
       d="m 150.45416,285.45685 c -1.84828,-0.21112 -3.50172,-0.71587 -5.36173,-1.63678 -2.83093,-1.40162 -5.28527,-3.28523 -8.69353,-6.67197 -1.31129,-1.30301 -7.31769,-7.66982 -8.11376,-8.60064 l -0.26047,-0.30453 0.34914,-0.35961 c 0.52723,-0.54306 2.72159,-2.52528 3.67412,-3.31896 2.60817,-2.17315 5.26239,-3.82095 7.35932,-4.5688 1.63555,-0.58331 2.97769,-0.76048 5.76786,-0.76139 6.05773,-0.002 11.42297,1.68662 17.06375,5.37044 3.22571,2.10661 5.89098,4.35249 10.10798,8.51743 l 2.74867,2.71472 -0.22167,0.18073 c -0.79761,0.65029 -2.55394,1.91878 -3.72399,2.68961 -6.47791,4.26762 -12.96208,6.63822 -18.57563,6.79121 -0.78027,0.0213 -1.73429,0.003 -2.12006,-0.0414 z"
       style="opacity:1;fill:#ffffff;fill-opacity:1;stroke:#000000;stroke-width:0.66875035;stroke-miterlimit:4;stroke-dasharray:none;stroke-opacity:1" />
    <path
       sodipodi:nodetypes="csssscsscc"
       inkscape:connector-curvature="0"
       id="path934"
       d="m 175.58723,274.80309 c -7.3965,-7.41254 -17.37998,-17.83657 -32.97921,-16.33846 -13.88192,1.33317 -27.54854,29.93168 -41.7685,28.80479 -11.929445,-0.94538 -19.509785,-28.24787 -33.228688,-28.40578 -13.010683,-0.14975 -24.39188,28.52027 -39.445139,28.3355 -3.850657,-0.0472 -2.654141,-5.95646 -2.654141,-5.95646 0,0 0.598574,-93.23942 0.417582,-116.75833 -0.264583,-34.38107 33.733368,-58.52634 75.019196,-58.52634 41.28584,0 74.92592,23.07421 74.49004,58.25826 0.42433,36.91246 0.0761,73.67179 0.14886,110.58682 z"
       style="fill:#4d4d4d;stroke:#000000;stroke-width:2.01318789;stroke-miterlimit:4;stroke-dasharray:none;stroke-opacity:1" />
    <path
       sodipodi:nodetypes="cssssc"
       inkscape:connector-curvature="0"
       id="path936"
       d="m 25.643874,261.5563 4.656878,-0.75593 c 15.942109,-2.58782 23.035811,25.30989 37.501896,25.75212 15.508689,0.47411 27.473816,-26.92034 42.987402,-27.19051 16.4048,-0.28569 24.86723,27.23225 41.60833,27.11081 12.12713,-0.088 23.54349,-9.98318 23.54349,-9.98318"
       style="fill:none;fill-opacity:1;stroke:#000000;stroke-width:2;stroke-linecap:butt;stroke-linejoin:miter;stroke-miterlimit:4;stroke-dasharray:none;stroke-opacity:1" />
    <path
       inkscape:connector-curvature="0"
       id="path938"
       d="m 65.990878,286.03983 c -1.760317,-0.35394 -3.965426,-1.39334 -5.873318,-2.76841 -2.133865,-1.53793 -6.39636,-6.09382 -10.083618,-10.7777 l -0.5027,-0.63858 2.781805,-2.9223 c 4.633158,-4.86715 7.423641,-7.1845 10.33594,-8.58338 1.836306,-0.88207 3.009276,-1.15833 4.882902,-1.15004 3.267456,0.0144 5.93392,1.2394 9.414407,4.32503 2.127307,1.88595 4.243791,4.33626 7.742172,8.96328 l 2.020041,2.67174 -1.162939,1.14131 c -6.077815,5.96475 -10.880314,9.0335 -15.250159,9.74473 -1.033518,0.16822 -3.455563,0.16501 -4.304533,-0.005 z"
       style="opacity:1;fill:#ffffff;fill-opacity:1;stroke:#000000;stroke-width:2;stroke-miterlimit:4;stroke-dasharray:none;stroke-opacity:1" />
    <path
       sodipodi:nodetypes="scccsscsss"
       inkscape:connector-curvature="0"
       id="path940"
       d="m 26.981036,287.0118 c -1.073018,-0.50703 -1.647291,-1.63973 -1.660578,-3.27536 -0.0083,-1.0199 0.303942,-21.93909 0.327969,-21.97383 0.0083,-0.0121 1.176025,-0.52839 2.594854,-0.76844 3.178323,-0.53775 5.388813,-0.27142 7.034667,0.17089 3.155791,0.84809 5.817256,2.56174 9.178954,5.9101 1.790872,1.78377 5.121185,5.58561 5.056238,5.77214 -0.02037,0.0585 -1.138375,1.27232 -2.484443,2.69732 -6.273861,6.64177 -10.914221,10.07156 -15.213541,11.24465 -1.747944,0.47694 -4.069541,0.58381 -4.83412,0.22253 z"
       style="opacity:1;fill:#ffffff;fill-opacity:1;stroke:#000000;stroke-width:2;stroke-miterlimit:4;stroke-dasharray:none;stroke-opacity:1" />
    <path
       inkscape:connector-curvature="0"
       id="path942"
       d="m 99.823683,287.57803 c -3.697795,-0.88119 -6.796781,-3.41387 -11.625478,-9.50103 -0.777953,-0.9807 -1.414334,-1.83848 -1.414175,-1.90617 4.31e-4,-0.19646 7.420895,-7.46891 9.337982,-9.15175 3.324624,-2.91839 5.668038,-4.57604 8.185888,-5.79038 2.73214,-1.3177 4.45218,-1.74188 7.0368,-1.73538 4.92072,0.0123 9.00035,2.11446 14.76628,7.60843 0.94096,0.8966 1.69299,1.66866 1.67114,1.71565 -0.12858,0.27664 -11.18588,11.07349 -12.46436,12.17078 -4.30888,3.6982 -7.43046,5.57408 -10.66915,6.41144 -1.37903,0.35654 -3.71499,0.44292 -4.824927,0.17841 z"
       style="opacity:1;fill:#ffffff;fill-opacity:1;stroke:#000000;stroke-width:2;stroke-miterlimit:4;stroke-dasharray:none;stroke-opacity:1" />
    <path
       inkscape:connector-curvature="0"
       id="path956"
       d="m 92.440272,270.03682 2.12474,14.88419"
       style="fill:none;stroke:#000000;stroke-width:2;stroke-linecap:butt;stroke-linejoin:miter;stroke-miterlimit:4;stroke-dasharray:none;stroke-opacity:1" />
    <path
       inkscape:transform-center-x="0.61260062"
       style="fill:none;stroke:#000000;stroke-width:2;stroke-linecap:butt;stroke-linejoin:miter;stroke-miterlimit:4;stroke-dasharray:none;stroke-opacity:1"
       d="m 99.938683,264.24253 2.566327,23.29723"
       id="path958"
       inkscape:connector-curvature="0" />
    <path
       inkscape:connector-curvature="0"
       id="path960"
       d="m 107.1121,260.28759 2.7331,24.81115"
       style="fill:none;stroke:#000000;stroke-width:2;stroke-linecap:butt;stroke-linejoin:miter;stroke-miterlimit:4;stroke-dasharray:none;stroke-opacity:1" />
    <path
       style="fill:none;stroke:#000000;stroke-width:2;stroke-linecap:butt;stroke-linejoin:miter;stroke-miterlimit:4;stroke-dasharray:none;stroke-opacity:1"
       d="m 115.04666,259.92279 2.10952,19.15028"
       id="path962"
       inkscape:connector-curvature="0" />
    <path
       style="fill:none;stroke:#000000;stroke-width:2;stroke-linecap:butt;stroke-linejoin:miter;stroke-miterlimit:4;stroke-dasharray:none;stroke-opacity:1"
       d="m 122,263.58348 1.4152,9.37784"
       id="path964"
       inkscape:connector-curvature="0" />
    <path
       style="fill:none;stroke:#000000;stroke-width:2;stroke-linecap:butt;stroke-linejoin:miter;stroke-miterlimit:4;stroke-dasharray:none;stroke-opacity:1"
       d="m 55.029917,265.61218 2.12474,14.88419"
       id="path966"
       inkscape:connector-curvature="0" />
    <path
       inkscape:connector-curvature="0"
       id="path968"
       d="m 62.098497,260.76571 3.409324,24.64287"
       style="fill:none;stroke:#000000;stroke-width:2;stroke-linecap:butt;stroke-linejoin:miter;stroke-miterlimit:4;stroke-dasharray:none;stroke-opacity:1" />
    <path
       style="fill:none;stroke:#000000;stroke-width:2;stroke-linecap:butt;stroke-linejoin:miter;stroke-miterlimit:4;stroke-dasharray:none;stroke-opacity:1"
       d="m 70.224773,259.49787 3.531665,25.52716"
       id="path970"
       inkscape:connector-curvature="0" />
    <path
       inkscape:connector-curvature="0"
       id="path972"
       d="m 78.41899,264.98723 2.110489,15.25479"
       style="fill:none;stroke:#000000;stroke-width:2;stroke-linecap:butt;stroke-linejoin:miter;stroke-miterlimit:4;stroke-dasharray:none;stroke-opacity:1" />
    <path
       inkscape:connector-curvature="0"
       id="path974"
       d="m 26.601561,261.7509 2.496143,25.2609"
       style="fill:none;stroke:#000000;stroke-width:2;stroke-linecap:butt;stroke-linejoin:miter;stroke-miterlimit:4;stroke-dasharray:none;stroke-opacity:1" />
    <path
       style="fill:none;stroke:#000000;stroke-width:2;stroke-linecap:butt;stroke-linejoin:miter;stroke-miterlimit:4;stroke-dasharray:none;stroke-opacity:1"
       d="m 33.85866,260.2165 3.337547,23.38012"
       id="path976"
       inkscape:connector-curvature="0" />
    <path
       inkscape:connector-curvature="0"
       id="path979"
       d="m 41.907833,264.61948 2.01608,14.123"
       style="fill:none;stroke:#000000;stroke-width:2;stroke-linecap:butt;stroke-linejoin:miter;stroke-miterlimit:4;stroke-dasharray:none;stroke-opacity:1" />
    <ellipse
       ry="31.130087"
       rx="16.329433"
       cy="173.1749"
       cx="74.62851"
       id="ellipse981"
       style="opacity:1;fill:#ffffff;fill-opacity:1;stroke:#000000;stroke-width:2.06381774;stroke-miterlimit:4;stroke-dasharray:none;stroke-opacity:1" />
    <ellipse
       ry="6.5767856"
       rx="3.8364584"
       cy="169.69753"
       cx="81.359367"
       id="ellipse983"
       style="opacity:1;fill:#000000;fill-opacity:1;stroke:#000000;stroke-width:1.38095236;stroke-miterlimit:4;stroke-dasharray:none;stroke-opacity:1" />
    <ellipse
       style="opacity:1;fill:#ffffff;fill-opacity:1;stroke:#000000;stroke-width:2.08493328;stroke-miterlimit:4;stroke-dasharray:none;stroke-opacity:1"
       id="ellipse985"
       cx="122.87632"
       cy="171.33434"
       rx="16.677099"
       ry="31.108034" />
    <ellipse
       style="opacity:1;fill:#000000;fill-opacity:1;stroke:#000000;stroke-width:1.38095236;stroke-miterlimit:4;stroke-dasharray:none;stroke-opacity:1"
       id="ellipse987"
       cx="129.24895"
       cy="167.84546"
       rx="3.8364584"
       ry="6.5767856" />
    <path
       inkscape:connector-curvature="0"
       id="path1015"
       d="m 133.77734,262.26032 1.65222,14.99892"
       style="fill:none;stroke:#000000;stroke-width:2;stroke-linecap:butt;stroke-linejoin:miter;stroke-miterlimit:4;stroke-dasharray:none;stroke-opacity:1"
       inkscape:transform-center-x="0.39439138"
       inkscape:transform-center-y="1.8293228e-06" />
    <path
       inkscape:transform-center-y="-1.2106211e-06"
       inkscape:transform-center-x="0.65950684"
       style="fill:none;stroke:#000000;stroke-width:2;stroke-linecap:butt;stroke-linejoin:miter;stroke-miterlimit:4;stroke-dasharray:none;stroke-opacity:1"
       d="m 141.08085,258.80613 2.76283,25.08103"
       id="path1017"
       inkscape:connector-curvature="0" />
    <path
       inkscape:connector-curvature="0"
       id="path1019"
       d="m 149.78509,258.90539 3.04214,27.61653"
       style="fill:none;stroke:#000000;stroke-width:2;stroke-linecap:butt;stroke-linejoin:miter;stroke-miterlimit:4;stroke-dasharray:none;stroke-opacity:1"
       inkscape:transform-center-x="0.72617787"
       inkscape:transform-center-y="-1.7343065e-06" />
    <path
       inkscape:transform-center-x="0.63705632"
       style="fill:none;stroke:#000000;stroke-width:2;stroke-linecap:butt;stroke-linejoin:miter;stroke-miterlimit:4;stroke-dasharray:none;stroke-opacity:1"
       d="m 158.48254,261.07356 2.66877,24.22707"
       id="path1021"
       inkscape:connector-curvature="0" />
    <path
       inkscape:connector-curvature="0"
       id="path1023"
       d="m 167.23748,266.74034 1.65128,14.99028"
       style="fill:none;stroke:#000000;stroke-width:2;stroke-linecap:butt;stroke-linejoin:miter;stroke-miterlimit:4;stroke-dasharray:none;stroke-opacity:1"
       inkscape:transform-center-x="0.39417579"
       inkscape:transform-center-y="-1.5898273e-06" />
    <text
       xml:space="preserve"
       style="font-style:normal;font-variant:normal;font-weight:normal;font-stretch:normal;font-size:25.4px;line-height:1.25;font-family:Arial;-inkscape-font-specification:'Arial, Normal';font-variant-ligatures:normal;font-variant-caps:normal;font-variant-numeric:normal;font-feature-settings:normal;text-align:start;letter-spacing:0px;word-spacing:0px;writing-mode:lr;text-anchor:start;fill:#ffffff;fill-opacity:1;stroke:none;stroke-width:0.27665356;"
       x="56.364445"
       y="236.55856"
       id="text874"><tspan
         sodipodi:role="line"
         x="56.364445"
         y="236.55856"
         id="tspan872"
         style="stroke-width:0.27665356;-inkscape-font-specification:'Arial, Normal';font-family:Arial;font-weight:normal;font-style:normal;font-stretch:normal;font-variant:normal;font-size:25.4px;text-anchor:start;text-align:start;writing-mode:lr;font-variant-ligatures:normal;font-variant-caps:normal;font-variant-numeric:normal;font-feature-settings:normal;"><tspan
           x="56.364445"
           y="236.55856"
           id="tspan870"
           style="stroke-width:0.27665356;-inkscape-font-specification:'Arial, Normal';font-family:Arial;font-weight:normal;font-style:normal;font-stretch:normal;font-variant:normal;font-size:25.4px;text-anchor:start;text-align:start;writing-mode:lr;font-variant-ligatures:normal;font-variant-caps:normal;font-variant-numeric:normal;font-feature-settings:normal;">CASPR</tspan></tspan></text>
  </g>
</svg>
